<?xml version="1.0" encoding="UTF-8" standalone="no"?>
<svg
   width="2130"
   height="275.815"
   viewBox="0 0 2130 275.815"
   fill="none"
   version="1.1"
   id="svg210"
   sodipodi:docname="ID_logo_upravene.svg"
   inkscape:version="1.2.2 (b0a84865, 2022-12-01)"
   xmlns:inkscape="http://www.inkscape.org/namespaces/inkscape"
   xmlns:sodipodi="http://sodipodi.sourceforge.net/DTD/sodipodi-0.dtd"
   xmlns="http://www.w3.org/2000/svg"
   xmlns:svg="http://www.w3.org/2000/svg">
   <defs
      id="defs214" />
   <sodipodi:namedview
      id="namedview212"
      pagecolor="#ffffff"
      bordercolor="#000000"
      borderopacity="0.25"
      inkscape:showpageshadow="2"
      inkscape:pageopacity="0.0"
      inkscape:pagecheckerboard="0"
      inkscape:deskcolor="#d1d1d1"
      showgrid="false"
      inkscape:zoom="0.36990596"
      inkscape:cx="506.88559"
      inkscape:cy="168.96186"
      inkscape:window-width="3840"
      inkscape:window-height="2107"
      inkscape:window-x="0"
      inkscape:window-y="25"
      inkscape:window-maximized="1"
      inkscape:current-layer="svg210" />
   <path
      d="m 1847.62,61.013 h 62.05 l 42.99,72.093 42.7,-72.093 h 59.83 l -77.41,123.799 v 88.049 h -51.12 v -88.049 z"
      fill="#000000"
      id="path184" />
   <path
      d="M 1606.23,272.861 V 61.013 h 62.34 l 57.77,136.8 61.45,-136.8 h 52.3 v 211.848 h -51.12 V 160.289 l -48.01,112.572 h -36.93 l -46.39,-112.572 v 112.572 z"
      fill="#000000"
      id="path186" />
   <path
      d="m 1475.19,58.059 c 15.37,0 29.75,2.757 43.14,8.273 13.49,5.515 25.02,13.098 34.57,22.75 9.55,9.554 17.09,21.077 22.6,34.569 5.52,13.493 8.28,27.922 8.28,43.286 0,15.364 -2.76,29.792 -8.28,43.285 -5.51,13.493 -13.05,25.065 -22.6,34.717 -9.55,9.554 -21.08,17.088 -34.57,22.603 -13.39,5.516 -27.77,8.273 -43.14,8.273 -20.38,0 -38.9,-4.678 -55.54,-14.034 -16.55,-9.455 -29.55,-22.505 -39.01,-39.149 -9.45,-16.645 -14.18,-35.21 -14.18,-55.695 0,-20.486 4.73,-39.051 14.18,-55.695 9.46,-16.644 22.46,-29.645 39.01,-39.001 16.64,-9.455 35.16,-14.182 55.54,-14.182 z m 40.04,66.774 c -10.64,-11.227 -23.98,-16.841 -40.04,-16.841 -16.05,0 -29.4,5.614 -40.03,16.841 -10.64,11.228 -15.96,25.262 -15.96,42.104 0,16.94 5.32,31.024 15.96,42.251 10.63,11.228 23.98,16.842 40.03,16.842 16.06,0 29.4,-5.614 40.04,-16.842 10.63,-11.227 15.95,-25.311 15.95,-42.251 0,-16.842 -5.32,-30.876 -15.95,-42.104 z"
      fill="#000000"
      id="path188" />
   <path
      d="m 1240.74,61.013 c 20.29,0 38.71,4.531 55.25,13.591 16.55,9.061 29.5,21.619 38.86,37.672 9.45,16.054 14.18,33.978 14.18,53.774 0,20.19 -4.73,38.46 -14.18,54.809 -9.36,16.25 -22.31,29.005 -38.86,38.262 -16.54,9.16 -34.96,13.74 -55.25,13.74 h -74.75 V 61.013 Z m 3.7,162.801 c 15.06,0 27.47,-5.466 37.22,-16.399 9.85,-10.932 14.78,-24.72 14.78,-41.365 0,-16.25 -4.88,-29.644 -14.63,-40.183 -9.65,-10.538 -22.11,-15.807 -37.37,-15.807 h -27.04 v 113.754 z"
      fill="#000000"
      id="path190" />
   <path
      d="m 2113.7,102.643 h -8.31 l -5.99,-10.442 h -2.31 v 10.442 h -6.89 V 74.284 h 11.14 c 1.58,0 3.07,0.402 4.47,1.206 1.4,0.791 2.52,1.879 3.36,3.263 0.86,1.385 1.29,2.881 1.29,4.489 0,1.741 -0.36,3.277 -1.07,4.608 -0.7,1.319 -1.7,2.36 -2.99,3.125 z m -16.61,-21.754 v 5.438 h 3.52 c 0.8,0 1.49,-0.263 2.05,-0.791 0.58,-0.54 0.87,-1.186 0.87,-1.938 0,-0.764 -0.28,-1.404 -0.85,-1.918 -0.56,-0.527 -1.26,-0.791 -2.07,-0.791 z"
      fill="#000000"
      id="path192" />
   <path
      fill-rule="evenodd"
      clip-rule="evenodd"
      d="m 2100.78,67.246 c -12.22,0 -22.12,9.903 -22.12,22.118 0,12.216 9.9,22.118 22.12,22.118 12.21,0 22.11,-9.902 22.11,-22.118 0,-12.215 -9.9,-22.118 -22.11,-22.118 z m -29.23,22.118 c 0,-16.14 13.09,-29.224 29.23,-29.224 16.14,0 29.22,13.084 29.22,29.224 0,16.14 -13.08,29.224 -29.22,29.224 -16.14,0 -29.23,-13.084 -29.23,-29.224 z"
      fill="#000000"
      id="path194" />
   <path
      d="m 1014.12,61.054 h 121.81 v 27.94 h -92.39 v 58.098 h 82.34 v 27.792 h -82.34 v 70.367 h 92.39 v 27.792 h -121.81 z"
      fill="#000000"
      id="path196" />
   <path
      d="m 805.68,61.054 h 26.46 L 941.68,217.902 V 61.054 h 29.13 V 273.043 H 944.94 L 835.1,116.491 v 156.552 h -29.42 z"
      fill="#000000"
      id="path198" />
   <path
      d="m 640.4,61.054 h 29.419 v 184.197 h 104.22 v 27.792 H 640.4 Z"
      fill="#000000"
      id="path200" />
   <path
      d="M 562.051,0 529.38,43.906 H 503.362 L 528.198,0 Z m 21.731,273.043 -18.479,-46.862 h -95.055 l -18.479,46.862 H 421.021 L 505.432,61.054 h 25.131 l 85.003,211.989 z M 481.483,198.241 h 73.029 l -36.367,-92.986 z"
      fill="#000000"
      id="path202" />
   <path
      d="m 280.285,61.054 h 121.813 v 27.94 h -92.395 v 58.098 h 82.342 v 27.792 h -82.342 v 70.367 h 92.395 v 27.792 H 280.285 Z"
      fill="#000000"
      id="path204" />
   <path
      d="m 140.289,61.054 c 14.586,0 28.334,2.661 41.245,7.983 13.009,5.322 24.195,12.615 33.557,21.879 9.363,9.165 16.754,20.302 22.175,33.41 5.42,13.009 8.13,26.954 8.13,41.836 0,15.078 -2.71,29.27 -8.13,42.575 -5.421,13.206 -12.812,24.54 -22.175,34.001 -9.264,9.363 -20.4,16.754 -33.41,22.175 -13.009,5.42 -26.806,8.13 -41.392,8.13 H 72.435 V 61.054 Z m 1.774,184.197 c 21.09,0 38.584,-7.49 52.48,-22.47 13.896,-15.079 20.844,-33.952 20.844,-56.619 0,-22.372 -6.948,-40.802 -20.844,-55.289 -13.798,-14.586 -31.291,-21.879 -52.48,-21.879 h -40.21 v 156.257 z"
      fill="#000000"
      id="path206" />
   <path
      d="M 0,61.054 H 29.418 V 273.043 H 0 Z"
      fill="#000000"
      id="path208" />
</svg>